<svg xmlns="http://www.w3.org/2000/svg" viewBox="0 0 1200 510" role="img">
<defs><linearGradient id="g" x1="0" x2="1"><stop stop-color="#dff0e8"/><stop offset="1" stop-color="#f4f7ef"/></linearGradient></defs>
<rect width="1200" height="510" fill="#ffffff"/><text x="60" y="67" font-family="Arial, sans-serif" font-size="25" font-weight="700" fill="#182420">A video contains multiple event-aligned affective states</text>
<rect x="60" y="98" width="1080" height="118" rx="18" fill="url(#g)" stroke="#dce3dc"/><rect x="84" y="121" width="175" height="73" rx="11" fill="#2c4d3f"/><circle cx="132" cy="157" r="19" fill="#b5e9c9"/><path d="M126 146l23 11-23 11z" fill="#174531"/><text x="278" y="145" font-family="Arial, sans-serif" font-size="21" font-weight="700" fill="#182420">Video stream</text><text x="278" y="176" font-family="Arial, sans-serif" font-size="16" fill="#65726d">events unfold over time and continuously reshape viewer affect</text>
<line x1="100" y1="307" x2="1100" y2="307" stroke="#bcc8c0" stroke-width="5" stroke-linecap="round"/><circle cx="180" cy="307" r="12" fill="#1f7a5b"/><circle cx="470" cy="307" r="12" fill="#1f7a5b"/><circle cx="745" cy="307" r="12" fill="#1f7a5b"/><circle cx="1030" cy="307" r="12" fill="#1f7a5b"/>
<g font-family="Arial, sans-serif"><rect x="95" y="344" width="175" height="98" rx="14" fill="#eff6f0" stroke="#cce0d2"/><text x="116" y="374" font-size="15" font-weight="700" fill="#1f7a5b">Segment 1</text><text x="116" y="402" font-size="23" font-weight="700" fill="#182420">Anticipation</text><text x="116" y="425" font-size="13" fill="#65726d">what may happen?</text>
<rect x="380" y="344" width="180" height="98" rx="14" fill="#fff7e8" stroke="#f1dfb5"/><text x="401" y="374" font-size="15" font-weight="700" fill="#a77616">Segment 2</text><text x="401" y="402" font-size="23" font-weight="700" fill="#182420">Surprise</text><text x="401" y="425" font-size="13" fill="#65726d">the event changes</text>
<rect x="655" y="344" width="180" height="98" rx="14" fill="#fbeef0" stroke="#efcdd2"/><text x="676" y="374" font-size="15" font-weight="700" fill="#b94c61">Segment 3</text><text x="676" y="402" font-size="23" font-weight="700" fill="#182420">Empathic pain</text><text x="676" y="425" font-size="13" fill="#65726d">why it matters</text>
<rect x="940" y="344" width="180" height="98" rx="14" fill="#eef1fb" stroke="#cfd7ee"/><text x="961" y="374" font-size="15" font-weight="700" fill="#4d66a6">Segment 4</text><text x="961" y="402" font-size="23" font-weight="700" fill="#182420">Relief</text><text x="961" y="425" font-size="13" fill="#65726d">resolution arrives</text></g>
<text x="60" y="482" font-family="Arial, sans-serif" font-size="15" fill="#65726d">DAR jointly evaluates temporal boundaries, fine-grained viewer emotions, and causal explanations grounded in the video.</text></svg>
